<?xml version="1.0" encoding="utf-8"?>
<!-- Generator: Adobe Illustrator 22.1.0, SVG Export Plug-In . SVG Version: 6.00 Build 0)  -->
<svg version="1.1"
	 id="Layer_1" xmlns:cc="http://creativecommons.org/ns#" xmlns:dc="http://purl.org/dc/elements/1.1/" xmlns:inkscape="http://www.inkscape.org/namespaces/inkscape" xmlns:rdf="http://www.w3.org/1999/02/22-rdf-syntax-ns#" xmlns:sodipodi="http://sodipodi.sourceforge.net/DTD/sodipodi-0.dtd" xmlns:svg="http://www.w3.org/2000/svg"
	 xmlns="http://www.w3.org/2000/svg" xmlns:xlink="http://www.w3.org/1999/xlink" x="0px" y="0px" viewBox="0 0 100 99"
	 style="enable-background:new 0 0 100 99;" xml:space="preserve">
<style type="text/css">
	.st0{fill:#244b95;}
</style>
<g transform="translate(0,-952.36218)">
	<path class="st0" d="M50,957.4c-24.9,0-45,20.1-45,45s20.1,45,45,45s45-20.1,45-45S74.9,957.4,50,957.4L50,957.4z M50,973.6
		c2,0,3.6,1.6,3.6,3.6v23.1l16.9,9.8c1.7,1,2.3,3.2,1.3,4.9c-1,1.7-3.2,2.3-4.9,1.3l-18.3-10.6c-0.1-0.1-0.3-0.1-0.4-0.2
		c-1.1-0.6-1.8-1.8-1.8-3.1v-25.2C46.4,975.2,48,973.6,50,973.6z"/>
</g>
</svg>
