<?xml version="1.0" encoding="utf-8"?>
<!-- Generator: Adobe Illustrator 22.1.0, SVG Export Plug-In . SVG Version: 6.00 Build 0)  -->
<svg version="1.1" id="Layer_1" xmlns="http://www.w3.org/2000/svg" xmlns:xlink="http://www.w3.org/1999/xlink" x="0px" y="0px"
	 viewBox="0 0 100 99" style="enable-background:new 0 0 100 99;" xml:space="preserve">
<style type="text/css">
	.st0{fill:#244b95;}
</style>
<title>Artboard 19</title>
<path class="st0" d="M92.9,50L65.3,22.4c-3.1-3.1-7.4-4.7-11.8-4.4l-12.4,0.8l-3.9-3.9c-3-3-7.8-3-10.8,0c0,0,0,0,0,0L3.2,38
	c-3,3-3,7.8,0,10.8c0,0,0,0,0,0l36.3,36.3c3,3,7.8,3,10.8,0c0,0,0,0,0,0l10-10c-1.9-2.1-3.5-4.4-4.8-6.9l-0.7-1.5L20.5,32.4
	l11.3-11.3l12.6,12.6c0.8-0.4,1.6-0.7,2.5-1c4.1-1,8.5,0.3,11.5,3.4l10.3,10.3c1.1,1.1,1.2,2.8,0.1,3.9c-1.1,1.1-2.8,1.2-3.9,0.1
	c0,0-0.1-0.1-0.1-0.1L54.5,40.2c-2.4-2.4-6.2-2.6-8.8-0.3c-2.5,2.3-2.6,6.2-0.3,8.7c0,0,0.1,0.1,0.1,0.1l13.9,13.9l1.5,3
	c3.7,7.7,11.4,12.6,19.9,12.6L99,78.3L98.6,50H92.9z M49.5,74.3L45,78.9L9.4,43.4l4.6-4.6L49.5,74.3z"/>
</svg>
