<?xml version="1.0" encoding="utf-8"?>
<!-- Generator: Adobe Illustrator 22.0.1, SVG Export Plug-In . SVG Version: 6.00 Build 0)  -->
<svg version="1.2" baseProfile="tiny" id="Layer_1" xmlns="http://www.w3.org/2000/svg" xmlns:xlink="http://www.w3.org/1999/xlink"
	 x="0px" y="0px" viewBox="0 0 25 25" xml:space="preserve">
<g transform="translate(-210 -140)">
	<g>
		<path d="M222.5,165c6.9,0,12.5-5.6,12.5-12.5c0-6.9-5.6-12.5-12.5-12.5s-12.5,5.6-12.5,12.5C210,159.4,215.6,165,222.5,165z
			 M222.5,141c6.3,0,11.5,5.2,11.5,11.5s-5.2,11.5-11.5,11.5s-11.5-5.2-11.5-11.5S216.2,141,222.5,141z"/>
		<polygon points="221.7,158 217.6,158.2 228.2,147.6 228,151.7 229,151.8 229.2,145.8 223.2,146 223.3,147 227.4,146.8 
			216.8,157.4 217,153.3 216,153.2 215.8,159.2 221.8,159 		"/>
	</g>
</g>
</svg>
