<?xml version="1.0" encoding="utf-8"?>
<!-- Generator: Adobe Illustrator 22.1.0, SVG Export Plug-In . SVG Version: 6.00 Build 0)  -->
<svg version="1.1" id="Layer_1" xmlns="http://www.w3.org/2000/svg" xmlns:xlink="http://www.w3.org/1999/xlink" x="0px" y="0px"
	 viewBox="0 0 100 102.8" style="enable-background:new 0 0 100 102.8;" xml:space="preserve">
<style type="text/css">
	.st0{fill:#244b95;}
</style>
<path class="st0" d="M22.3,84.6c7.6,3.3,17.2,5.2,27.7,5.2s20-2,27.7-5.2c1.9-0.8,3.1-2.6,3.1-4.6V49.9c0-2-1.2-3.8-3.1-4.6
	c-1.3-0.5-2.6-1-4-1.5v-9.9c0-13-10.6-23.7-23.7-23.7S26.3,20.8,26.3,33.8v9.9c-1.4,0.5-2.7,1-4,1.5c-1.9,0.8-3.1,2.6-3.1,4.6V80
	C19.3,82,20.5,83.8,22.3,84.6z M54.7,65.7v7.4c0,2.6-2.1,4.7-4.7,4.7s-4.7-2.1-4.7-4.7v-7.4c-1.8-1.4-3-3.6-3-6.1
	c0-4.3,3.5-7.7,7.7-7.7s7.7,3.5,7.7,7.7C57.7,62.1,56.5,64.3,54.7,65.7z M36.3,33.8c0-7.5,6.1-13.7,13.7-13.7s13.7,6.1,13.7,13.7
	v7.4C59.3,40.4,54.8,40,50,40c-4.8,0-9.3,0.4-13.7,1.2C36.3,41.2,36.3,33.8,36.3,33.8z"/>
</svg>
