<?xml version="1.0" encoding="utf-8"?>
<!-- Generator: Adobe Illustrator 22.1.0, SVG Export Plug-In . SVG Version: 6.00 Build 0)  -->
<svg version="1.1" id="Layer_1" xmlns="http://www.w3.org/2000/svg" xmlns:xlink="http://www.w3.org/1999/xlink" x="0px" y="0px"
	 viewBox="0 0 72.1 11.3" style="enable-background:new 0 0 72.1 11.3;" xml:space="preserve">
<style type="text/css">
	.st0{fill:#A42B0F;}
</style>
<g>
	<g>
		<path class="st0" d="M12,4.2c-0.1-0.2-0.3-0.3-0.5-0.3H7.7L6.5,0.3c-0.1-0.4-0.8-0.4-1,0L4.3,3.9H0.5C0.3,3.9,0.1,4,0,4.2
			s0,0.4,0.2,0.6L3.3,7l-1.2,3.6c-0.1,0.2,0,0.4,0.2,0.6c0.2,0.1,0.4,0.1,0.6,0L6,9l3.1,2.2c0.1,0.1,0.2,0.1,0.3,0.1
			c0.1,0,0.2,0,0.3-0.1c0.2-0.1,0.3-0.3,0.2-0.6L8.7,7l3.1-2.2C12,4.6,12.1,4.4,12,4.2z"/>
	</g>
	<g>
		<path class="st0" d="M27,4.2c-0.1-0.2-0.3-0.3-0.5-0.3h-3.8l-1.2-3.6c-0.1-0.4-0.8-0.4-1,0l-1.2,3.6h-3.8c-0.2,0-0.4,0.1-0.5,0.3
			s0,0.4,0.2,0.6L18.3,7l-1.2,3.6c-0.1,0.2,0,0.4,0.2,0.6c0.2,0.1,0.4,0.1,0.6,0L21,9l3.1,2.2c0.1,0.1,0.2,0.1,0.3,0.1
			s0.2,0,0.3-0.1c0.2-0.1,0.3-0.3,0.2-0.6L23.7,7l3.1-2.2C27,4.6,27.1,4.4,27,4.2z"/>
	</g>
	<g>
		<path class="st0" d="M42,4.2c-0.1-0.2-0.3-0.3-0.5-0.3h-3.8l-1.2-3.6c-0.1-0.4-0.8-0.4-1,0l-1.2,3.6h-3.8c-0.2,0-0.4,0.1-0.5,0.3
			s0,0.4,0.2,0.6L33.3,7l-1.2,3.6c-0.1,0.2,0,0.4,0.2,0.6c0.2,0.1,0.4,0.1,0.6,0L36,9l3.1,2.2c0.1,0.1,0.2,0.1,0.3,0.1
			s0.2,0,0.3-0.1c0.2-0.1,0.3-0.3,0.2-0.6L38.7,7l3.1-2.2C42,4.6,42.1,4.4,42,4.2z"/>
	</g>
	<g>
		<path class="st0" d="M57,4.2c-0.1-0.2-0.3-0.3-0.5-0.3h-3.8l-1.2-3.6c-0.1-0.4-0.8-0.4-1,0l-1.2,3.6h-3.8c-0.2,0-0.4,0.1-0.5,0.3
			s0,0.4,0.2,0.6L48.3,7l-1.2,3.6c-0.1,0.2,0,0.4,0.2,0.6c0.2,0.1,0.4,0.1,0.6,0L51,9l3.1,2.2c0.1,0.1,0.2,0.1,0.3,0.1
			c0.1,0,0.2,0,0.3-0.1c0.2-0.1,0.3-0.3,0.2-0.6L53.7,7l3.1-2.2C57,4.6,57.1,4.4,57,4.2z"/>
	</g>
	<g>
		<path class="st0" d="M72,4.2c-0.1-0.2-0.3-0.3-0.5-0.3h-3.8l-1.2-3.6c-0.1-0.4-0.8-0.4-1,0l-1.2,3.6h-3.8c-0.2,0-0.4,0.1-0.5,0.3
			s0,0.4,0.2,0.6L63.3,7l-1.2,3.6c-0.1,0.2,0,0.4,0.2,0.6c0.2,0.1,0.4,0.1,0.6,0L66,9l3.1,2.2c0.1,0.1,0.2,0.1,0.3,0.1
			c0.1,0,0.2,0,0.3-0.1c0.2-0.1,0.3-0.3,0.2-0.6L68.7,7l3.1-2.2C72,4.6,72.1,4.4,72,4.2z M67.9,6.4c-0.2,0.1-0.3,0.4-0.2,0.6
			l0.8,2.5L66.4,8c-0.1-0.1-0.2-0.1-0.3-0.1V2.1l0.8,2.5c0.1,0.2,0.3,0.3,0.5,0.3H70L67.9,6.4z"/>
	</g>
</g>
</svg>
